<svg width="3000" height="1500" xmlns="http://www.w3.org/2000/svg">
    <!-- The InvoicePlane logo is copyright by Invoiceplane.com and Kovah.de -->
    <g fill="none" fill-rule="evenodd">
        <g fill="#363636">
            <path d="M352.975 643l98.7-367.5h80.85l-98.7 367.5h-80.85zm164.75 0L592.8 361.6h79.8l-7.875 29.4c19.95-17.85 45.15-34.65 76.65-34.65 50.4 0 82.95 30.975 82.95 81.9 0 15.75-4.725 35.7-9.45 53.55L774.45 643h-79.8l41.475-154.35c2.1-7.875 3.675-18.375 3.675-25.2 0-22.575-14.175-34.65-38.85-34.65-31.5 0-51.975 22.575-60.9 56.175L597.525 643h-79.8zm393.45 2.1L877.05 361.6h81.9l12.6 187.425L1083.375 361.6h85.575L983.625 645.1h-72.45zm379.95 4.2c-83.475 0-135.45-55.125-135.45-130.2 0-84 72.45-162.75 162.75-162.75 83.475 0 135.45 55.125 135.45 130.2 0 84-72.45 162.75-162.75 162.75zm3.675-68.25c48.825 0 80.85-52.5 80.85-92.4 0-40.95-24.675-64.05-60.9-64.05-48.825 0-80.85 52.5-80.85 92.4 0 40.95 24.675 64.05 60.9 64.05zm266.5-250.425l19.425-70.875h84l-19.425 70.875h-84zM1479.4 643l75.6-281.4h79.8L1559.2 643h-79.8zm313.175 6.3c-76.65 0-131.25-50.4-131.25-127.05 0-91.875 76.125-165.9 165.9-165.9 61.95 0 96.075 28.35 115.5 61.95l-60.9 43.05c-14.175-21.525-29.4-36.75-60.9-36.75-42 0-80.85 45.675-80.85 97.65 0 36.225 24.15 59.325 55.125 59.325 24.675 0 42.525-9.975 63.525-27.825l40.95 51.975c-29.4 26.25-59.325 43.575-107.1 43.575zm227.2-119.175c2.625 33.075 22.05 55.125 64.05 55.125 21 0 39.375-6.3 62.475-22.575l36.75 49.35c-25.2 21-60.375 37.275-108.15 37.275-80.85 0-130.2-47.25-130.2-124.95 0-81.375 66.15-168 166.95-168 72.975 0 114.975 47.25 114.975 109.725 0 19.95-5.25 42.525-14.175 64.05h-192.675zm6.825-49.875h122.325c1.575-5.25 2.625-11.55 2.625-18.375 0-23.1-13.65-41.475-46.2-41.475-36.225 0-65.625 24.15-78.75 59.85zM232.3 1097L331 729.5h116.55c52.5 0 88.725 10.5 115.5 37.275 18.9 18.9 28.35 43.575 28.35 75.6 0 91.35-78.225 143.325-178.5 143.325h-69.825L313.15 1097H232.3zm129.675-182.175H417.1c53.55 0 89.775-24.15 89.775-65.625 0-12.075-4.2-22.575-12.075-30.45-11.025-11.025-26.25-16.275-50.4-16.275h-52.5l-29.925 112.35zM583.95 1097l102.9-383.25h79.8L663.75 1097h-79.8zm242.45 5.25c-48.825 0-81.9-31.5-81.9-75.6 0-65.1 53.025-101.325 121.275-101.325 30.45 0 55.65 5.25 79.275 12.6l1.05-3.675c1.575-6.3 3.15-12.6 3.15-21 0-19.425-13.65-33.075-53.025-33.075-27.3 0-54.6 6.825-75.075 15.225l-12.6-63c28.875-12.075 64.575-19.95 104.475-19.95 75.6 0 113.925 31.5 113.925 86.625 0 14.7-2.625 28.35-6.3 42.525L979.175 1097H902l8.4-32.55c-22.575 24.15-50.925 37.8-84 37.8zm34.125-54.6c33.075 0 61.95-26.25 70.875-56.7l2.1-7.35c-13.65-5.25-33.075-9.975-52.5-9.975-33.075 0-57.225 16.8-57.225 44.1 0 17.325 14.175 29.925 36.75 29.925zM1053.85 1097l75.075-281.4h79.8l-7.875 29.4c19.95-17.85 45.15-34.65 76.65-34.65 50.4 0 82.95 30.975 82.95 81.9 0 15.75-4.725 35.7-9.45 53.55l-40.425 151.2h-79.8l41.475-154.35c2.1-7.875 3.675-18.375 3.675-25.2 0-22.575-14.175-34.65-38.85-34.65-31.5 0-51.975 22.575-60.9 56.175L1133.65 1097h-79.8zm424.05-112.875c2.625 33.075 22.05 55.125 64.05 55.125 21 0 39.375-6.3 62.475-22.575l36.75 49.35c-25.2 21-60.375 37.275-108.15 37.275-80.85 0-130.2-47.25-130.2-124.95 0-81.375 66.15-168 166.95-168 72.975 0 114.975 47.25 114.975 109.725 0 19.95-5.25 42.525-14.175 64.05H1477.9zm6.825-49.875h122.325c1.575-5.25 2.625-11.55 2.625-18.375 0-23.1-13.65-41.475-46.2-41.475-36.225 0-65.625 24.15-78.75 59.85z"/>
        </g>
        <path fill="#1E73B8" d="M2207.938 1094l85.525 40.966 66.537 23.841L2197 1362z"/>
        <path fill="#2181CE" d="M2048 997.705L2808 592l-598.978 502.76-11.93 267.24-87.992-178.457z"/>
        <path fill="#429AE1" d="M1823 923.594l35.31-21.424 98.124-72.7L2808 592l-760.37 406-131.065-33.94zM2209 1094.94l81 44.995L2402.209 1182l182.49-50.223L2808 592z"/>
    </g>
</svg>
